<svg xmlns="http://www.w3.org/2000/svg" width="512" height="512" viewBox="0 0 512 512">
  <rect width="512" height="512" rx="104" fill="#1F1F1C"/>
  <g transform="translate(256.000 256.000) scale(0.31098 -0.31098) translate(-531.000 -312.000)" fill="#B08D57">
    <path transform="translate(0 0)" d="M154 513Q154 473 174.0 444.0Q194 415 226.0 392.5Q258 370 294 348Q331 326 365.5 301.0Q400 276 422.5 242.5Q445 209 445 161Q445 112 419.5 73.0Q394 34 347.5 11.0Q301 -12 236 -12Q210 -12 183.5 -7.5Q157 -3 133.0 5.0Q109 13 89 25Q85 28 82.5 32.0Q80 36 80 44L70 187Q70 189 70 191Q72 192 75 193Q80 193 81 189Q90 158 105.0 126.0Q120 94 141.0 67.5Q162 41 191.5 24.0Q221 7 260 7Q287 7 312.5 17.0Q338 27 354.0 50.5Q370 74 370 116Q370 164 349.0 197.0Q328 230 295.0 254.0Q262 278 225 300Q190 322 157.5 346.0Q125 370 105.0 401.5Q85 433 85 478Q85 532 113.5 567.0Q142 602 186.5 619.0Q231 636 278 636Q309 636 341.0 630.0Q373 624 399 613Q408 609 411.0 604.5Q414 600 414 595L419 470Q419 467 414.0 466.0Q409 465 407 469Q404 486 394.0 511.5Q384 537 367.0 561.5Q350 586 323.5 602.5Q297 619 259 619Q224 619 201.0 604.5Q178 590 166.0 566.5Q154 543 154 513Z"/>
    <path transform="translate(469 0)" d="M194 543V85Q194 59 199.5 45.5Q205 32 220.5 27.5Q236 23 267 23H352Q417 23 458.0 61.0Q499 99 512 162Q512 163 512 163Q513 165 518 165Q523 164 523 161Q520 132 517.0 91.0Q514 50 514 15Q514 0 499 0H33Q31 0 31.0 6.0Q31 12 33 12Q68 12 85.5 17.0Q103 22 109.0 37.0Q115 52 115 81V544Q115 573 109.0 587.5Q103 602 85.5 607.5Q68 613 33 613Q31 613 31.0 619.0Q31 625 33 625Q57 625 88.5 623.5Q120 622 154 622Q190 622 220.5 623.5Q251 625 275 625Q277 625 277.0 619.0Q277 613 275 613Q240 613 223.0 607.5Q206 602 200.0 587.0Q194 572 194 543Z"/>
  </g>
</svg>