<svg xmlns="http://www.w3.org/2000/svg" width="800" height="1050" viewBox="0 0 800 1050" role="img" aria-label="Interiors">
  <defs>
    <linearGradient id="sky" x1="0" y1="0" x2="0" y2="1">
      <stop offset="0" stop-color="#2a2520"/>
      <stop offset="1" stop-color="#4a3f33"/>
    </linearGradient>
    <linearGradient id="haze" x1="0" y1="0" x2="0" y2="1">
      <stop offset="0" stop-color="#ffffff" stop-opacity="0.12"/>
      <stop offset="1" stop-color="#ffffff" stop-opacity="0"/>
    </linearGradient>
  </defs>
  <rect width="800" height="1050" fill="url(#sky)"/>
  <circle cx="592" cy="273" r="72" fill="#ffffff" opacity="0.16"/>
  <path d="M0,1050 L0,566 L0,566 L100,500 L200,519 L300,617 L400,676 L500,626 L600,540 L700,528 L800,581 L800,1050 Z" fill="#6b5a45" opacity="0.55"/>
  <path d="M0,1050 L0,683 L0,683 L100,629 L200,644 L300,726 L400,775 L500,733 L600,662 L700,651 L800,696 L800,1050 Z" fill="#8a7355" opacity="0.7"/>
  <path d="M0,1050 L0,832 L0,832 L100,788 L200,801 L300,866 L400,906 L500,872 L600,815 L700,807 L800,842 L800,1050 Z" fill="#3a322a" opacity="0.92"/>
  <rect width="800" height="525" fill="url(#haze)"/>
  <text x="400" y="1024" text-anchor="middle"
    font-family="Georgia, serif" font-size="22.400000000000002"
    letter-spacing="3" fill="#E8E0D2" opacity="0.85">SERRA LUMA · INTERIORS</text>
</svg>