<svg xmlns="http://www.w3.org/2000/svg" width="800" height="800" viewBox="0 0 800 800" role="img" aria-label="Interiors">
  <defs>
    <linearGradient id="sky" x1="0" y1="0" x2="0" y2="1">
      <stop offset="0" stop-color="#2a2520"/>
      <stop offset="1" stop-color="#4a3f33"/>
    </linearGradient>
    <linearGradient id="haze" x1="0" y1="0" x2="0" y2="1">
      <stop offset="0" stop-color="#ffffff" stop-opacity="0.12"/>
      <stop offset="1" stop-color="#ffffff" stop-opacity="0"/>
    </linearGradient>
  </defs>
  <rect width="800" height="800" fill="url(#sky)"/>
  <circle cx="592" cy="208" r="72" fill="#ffffff" opacity="0.16"/>
  <path d="M0,800 L0,431 L0,431 L100,381 L200,396 L300,470 L400,515 L500,477 L600,412 L700,402 L800,443 L800,800 Z" fill="#6b5a45" opacity="0.55"/>
  <path d="M0,800 L0,520 L0,520 L100,479 L200,491 L300,553 L400,591 L500,559 L600,504 L700,496 L800,530 L800,800 Z" fill="#8a7355" opacity="0.7"/>
  <path d="M0,800 L0,634 L0,634 L100,601 L200,610 L300,660 L400,690 L500,665 L600,621 L700,615 L800,642 L800,800 Z" fill="#3a322a" opacity="0.92"/>
  <rect width="800" height="400" fill="url(#haze)"/>
  <text x="400" y="774" text-anchor="middle"
    font-family="Georgia, serif" font-size="22.400000000000002"
    letter-spacing="3" fill="#E8E0D2" opacity="0.85">SERRA LUMA · INTERIORS</text>
</svg>