<svg xmlns="http://www.w3.org/2000/svg" width="800" height="1000" viewBox="0 0 800 1000" role="img" aria-label="Studio">
  <defs>
    <linearGradient id="sky" x1="0" y1="0" x2="0" y2="1">
      <stop offset="0" stop-color="#3a4340"/>
      <stop offset="1" stop-color="#5a6560"/>
    </linearGradient>
    <linearGradient id="haze" x1="0" y1="0" x2="0" y2="1">
      <stop offset="0" stop-color="#ffffff" stop-opacity="0.12"/>
      <stop offset="1" stop-color="#ffffff" stop-opacity="0"/>
    </linearGradient>
  </defs>
  <rect width="800" height="1000" fill="url(#sky)"/>
  <circle cx="592" cy="260" r="72" fill="#ffffff" opacity="0.16"/>
  <path d="M0,1000 L0,497 L0,497 L100,573 L200,588 L300,541 L400,525 L500,580 L600,624 L700,578 L800,484 L800,1000 Z" fill="#7b857c" opacity="0.55"/>
  <path d="M0,1000 L0,616 L0,616 L100,680 L200,692 L300,652 L400,639 L500,685 L600,722 L700,683 L800,605 L800,1000 Z" fill="#566058" opacity="0.7"/>
  <path d="M0,1000 L0,765 L0,765 L100,816 L200,825 L300,794 L400,783 L500,820 L600,850 L700,818 L800,756 L800,1000 Z" fill="#1F2A30" opacity="0.92"/>
  <rect width="800" height="500" fill="url(#haze)"/>
  <text x="400" y="974" text-anchor="middle"
    font-family="Georgia, serif" font-size="22.400000000000002"
    letter-spacing="3" fill="#F7F3EA" opacity="0.85">SERRA LUMA · STUDIO</text>
</svg>