<svg xmlns="http://www.w3.org/2000/svg" width="900" height="1125" viewBox="0 0 900 1125" role="img" aria-label="Pavilion">
  <defs>
    <linearGradient id="sky" x1="0" y1="0" x2="0" y2="1">
      <stop offset="0" stop-color="#2c3a40"/>
      <stop offset="1" stop-color="#48565b"/>
    </linearGradient>
    <linearGradient id="haze" x1="0" y1="0" x2="0" y2="1">
      <stop offset="0" stop-color="#ffffff" stop-opacity="0.12"/>
      <stop offset="1" stop-color="#ffffff" stop-opacity="0"/>
    </linearGradient>
  </defs>
  <rect width="900" height="1125" fill="url(#sky)"/>
  <circle cx="666" cy="292.5" r="81" fill="#ffffff" opacity="0.16"/>
  <path d="M0,1125 L0,542 L0,542 L113,633 L225,672 L338,626 L450,590 L563,634 L675,694 L788,664 L900,561 L900,1125 Z" fill="#5c6a64" opacity="0.55"/>
  <path d="M0,1125 L0,679 L0,679 L113,754 L225,787 L338,749 L450,718 L563,755 L675,805 L788,780 L900,694 L900,1125 Z" fill="#3d4a44" opacity="0.7"/>
  <path d="M0,1125 L0,849 L0,849 L113,909 L225,936 L338,905 L450,881 L563,910 L675,950 L788,930 L900,861 L900,1125 Z" fill="#1F2A30" opacity="0.92"/>
  <rect width="900" height="562.5" fill="url(#haze)"/>
  <text x="450" y="1099" text-anchor="middle"
    font-family="Georgia, serif" font-size="25.2"
    letter-spacing="3" fill="#E8E0D2" opacity="0.85">SERRA LUMA · PAVILION</text>
</svg>