<svg xmlns="http://www.w3.org/2000/svg" width="900" height="1125" viewBox="0 0 900 1125" role="img" aria-label="The Land">
  <defs>
    <linearGradient id="sky" x1="0" y1="0" x2="0" y2="1">
      <stop offset="0" stop-color="#9aa78f"/>
      <stop offset="1" stop-color="#7e8f74"/>
    </linearGradient>
    <linearGradient id="haze" x1="0" y1="0" x2="0" y2="1">
      <stop offset="0" stop-color="#ffffff" stop-opacity="0.12"/>
      <stop offset="1" stop-color="#ffffff" stop-opacity="0"/>
    </linearGradient>
  </defs>
  <rect width="900" height="1125" fill="url(#sky)"/>
  <circle cx="666" cy="292.5" r="81" fill="#ffffff" opacity="0.16"/>
  <path d="M0,1125 L0,527 L0,527 L113,532 L225,633 L338,707 L450,672 L563,597 L675,592 L788,646 L900,653 L900,1125 Z" fill="#5e7158" opacity="0.55"/>
  <path d="M0,1125 L0,666 L0,666 L113,670 L225,754 L338,816 L450,787 L563,725 L675,720 L788,765 L900,771 L900,1125 Z" fill="#465c44" opacity="0.7"/>
  <path d="M0,1125 L0,839 L0,839 L113,842 L225,909 L338,959 L450,935 L563,886 L675,882 L788,918 L900,923 L900,1125 Z" fill="#2f3e2c" opacity="0.92"/>
  <rect width="900" height="562.5" fill="url(#haze)"/>
  <text x="450" y="1099" text-anchor="middle"
    font-family="Georgia, serif" font-size="25.2"
    letter-spacing="3" fill="#F7F3EA" opacity="0.85">SERRA LUMA · THE LAND</text>
</svg>